<?xml version="1.0" standalone="no"?>
<!DOCTYPE svg PUBLIC "-//W3C//DTD SVG 20010904//EN"
 "http://www.w3.org/TR/2001/REC-SVG-20010904/DTD/svg10.dtd">
<svg version="1.0" xmlns="http://www.w3.org/2000/svg"
 width="2133.000000pt" height="2133.000000pt" viewBox="0 0 2133.000000 2133.000000"
 preserveAspectRatio="xMidYMid meet">

<g transform="translate(0.000000,2133.000000) scale(0.100000,-0.100000)"
fill="currentColor" stroke="none">
<path d="M356 17689 c29 -33 213 -117 499 -230 1533 -602 2526 -1078 3595
-1722 996 -601 1812 -1197 2512 -1834 l168 -152 -81 -68 c-177 -148 -268 -333
-269 -544 0 -144 62 -311 156 -417 36 -40 43 -44 49 -29 4 9 5 34 1 55 -17
108 -18 162 -5 178 53 65 217 77 404 30 517 -130 1253 -609 1524 -991 77 -109
183 -323 211 -425 24 -88 26 -186 5 -236 -25 -61 -83 -131 -148 -180 -218
-165 -753 -325 -1327 -395 -256 -31 -791 -37 -1205 -13 -270 16 -458 19 -1200
19 -623 0 -922 -4 -1024 -13 -145 -13 -190 -23 -157 -35 9 -4 191 -38 404 -77
213 -39 468 -89 567 -111 755 -167 2214 -633 2825 -902 614 -270 1183 -609
1575 -939 160 -134 386 -380 482 -523 97 -144 123 -224 130 -400 9 -222 -10
-273 -204 -559 -126 -184 -223 -342 -223 -363 0 -7 4 -13 9 -13 20 0 136 88
291 220 570 489 968 768 1250 878 210 82 433 90 730 26 274 -59 584 -109 930
-149 520 -60 681 -130 1022 -442 457 -420 550 -639 403 -950 -78 -166 -179
-295 -396 -509 -426 -417 -1113 -891 -1764 -1216 -416 -209 -755 -309 -1210
-358 -284 -31 -351 -39 -384 -51 -57 -20 -36 -40 74 -68 105 -26 397 -77 560
-96 399 -49 1502 -15 2165 66 370 45 727 110 1077 198 229 58 302 83 341 116
25 21 27 29 25 87 -1 35 -12 90 -23 123 -44 124 -51 159 -45 221 26 285 334
632 771 873 436 239 1027 417 1609 483 147 17 606 16 710 -1 246 -40 384 -106
417 -199 9 -25 13 -87 12 -192 -1 -172 -25 -314 -70 -424 -39 -94 -220 -451
-324 -641 -282 -514 -589 -1185 -542 -1185 36 0 337 257 807 689 364 336 409
376 575 522 680 594 1208 975 1776 1277 82 44 214 114 293 156 169 90 281 162
281 181 0 16 -60 35 -275 89 -424 106 -2068 670 -2680 919 -1231 500 -1998
933 -2720 1533 -161 134 -447 417 -547 544 -294 369 -438 744 -438 1140 0 716
620 1261 1590 1397 158 22 803 25 1030 5 503 -45 836 -106 1110 -201 63 -22
116 -38 118 -36 10 9 -27 41 -163 143 -385 288 -1365 910 -1925 1222 -642 358
-782 448 -1035 663 -55 47 -101 84 -102 83 -2 -1 25 -54 58 -117 111 -207 187
-364 199 -409 20 -75 -21 -151 -102 -184 -96 -41 -530 -47 -638 -10 -30 10
-203 93 -385 184 -369 185 -607 293 -988 447 -1363 550 -3030 1026 -4007 1143
-223 27 -357 81 -745 302 -778 442 -1622 833 -2560 1185 -1595 598 -3248 1013
-4645 1167 -218 24 -707 66 -771 66 -32 0 -32 0 -13 -21z m8209 -3874 c913
-106 2856 -588 3650 -905 333 -133 757 -371 979 -550 248 -200 221 -444 -51
-467 -96 -8 -133 10 -167 82 -13 29 -29 56 -35 59 -18 12 -40 -6 -53 -42 -20
-56 -16 -436 5 -578 46 -302 114 -444 376 -793 l26 -34 -220 7 c-420 13 -721
26 -825 36 -314 31 -474 82 -692 224 -46 29 -123 74 -173 99 -182 90 -448 198
-460 185 -3 -2 7 -43 21 -89 38 -125 23 -197 -57 -277 -83 -84 -218 -132 -369
-132 -154 0 -292 52 -386 146 -94 95 -106 197 -37 334 39 80 90 128 178 170
85 40 147 50 300 50 74 0 135 3 135 8 -1 4 -78 60 -173 124 -238 161 -413 304
-611 498 -203 199 -318 334 -495 582 -258 363 -336 432 -695 615 -407 207
-606 387 -606 548 0 94 34 114 195 115 61 0 169 -7 240 -15z m4010 -3995 c315
-46 749 -147 860 -199 86 -41 201 -138 430 -361 323 -315 464 -435 599 -509
43 -23 76 -48 73 -54 -2 -7 -19 -13 -38 -15 -52 -4 -365 -38 -655 -71 -361
-42 -576 -54 -711 -41 -211 20 -305 60 -493 211 -134 108 -185 139 -224 139
-31 0 -41 -17 -55 -94 -6 -32 -20 -74 -32 -93 -94 -151 -544 -214 -989 -138
-183 31 -311 76 -354 124 -21 23 -41 27 -52 10 -3 -6 -14 -64 -24 -129 -22
-144 -45 -191 -115 -237 -110 -73 -118 -68 -625 432 -426 419 -590 567 -828
749 -78 60 -141 110 -140 112 2 1 158 13 348 25 310 21 419 24 1076 24 l732 0
123 -120 c187 -182 306 -258 480 -308 154 -45 220 -52 469 -52 305 0 400 23
400 93 0 41 -41 83 -185 192 -76 57 -190 154 -254 216 l-116 113 80 1 c44 0
143 -9 220 -20z m2359 -2060 c210 -55 584 -189 871 -313 97 -41 677 -317 688
-327 4 -4 -29 -14 -75 -23 -563 -109 -764 -155 -1026 -236 -232 -73 -297 -91
-319 -91 -12 0 -30 15 -46 39 -69 104 -250 505 -323 716 -45 130 -51 219 -18
256 17 19 26 20 78 14 32 -3 109 -19 170 -35z"/>
</g>
</svg>
